<?xml version="1.0" encoding="iso-8859-1"?>
<!-- Generator: Adobe Illustrator 19.0.0, SVG Export Plug-In . SVG Version: 6.00 Build 0)  -->
<svg version="1.1" id="Capa_1" xmlns="http://www.w3.org/2000/svg" xmlns:xlink="http://www.w3.org/1999/xlink" x="0px" y="0px"
	 viewBox="0 0 512.001 512.001" style="enable-background:new 0 0 512.001 512.001;" xml:space="preserve">
<path style="fill:#57555C;" d="M223.307,152.104c-0.599,0-2.399-0.601-3.3-0.901c-5.4-2.401-9-7.5-9-13.5V0.007h-23.698
	c-2.1,0-4.2,0-6.301,0.3C89.511,3.006,12.612,69.306,1.513,156.602c-6.299,49.5,7.2,97.798,38.1,136.198
	c17.1,21.298,38.698,38.098,62.697,49.498C42.312,367.198,0.014,428.296,0.014,496.995v15h360.991V314.999
	C361.005,234.601,303.407,166.202,223.307,152.104z"/>
<path style="fill:#3C3A41;" d="M361.005,314.999v196.995H181.009V0.307c2.1-0.3,4.2-0.3,6.301-0.3h23.698v137.696
	c0,6,3.6,11.1,9,13.5c0.901,0.3,2.701,0.901,3.3,0.901C303.407,166.202,361.005,234.601,361.005,314.999z"/>
<rect x="120.008" y="90.008" style="fill:#2B292C;" width="29.999" height="29.999"/>
<polygon style="fill:#FCBF29;" points="362.005,0.007 181.009,0.007 181.009,120.004 392.004,120.004 392.004,24.341 "/>
<path style="fill:#E61E14;" d="M503.782,90.197C485.057,36.681,434.764,0.006,377.004,0.006h-15v119.997H469.65l14.883-12.821
	L503.782,90.197z"/>
<path style="fill:#FE9923;" d="M512.001,210.002h-29.999c0-16.538-13.462-29.999-29.999-29.999H214.261
	c-4.541,0-9.015-1.267-12.801-3.775c-12.627-8.367-20.451-23.187-20.451-38.528V90.005h322.713l3.826,10.942
	c3.003,10.679,4.453,21.811,4.453,34.057V210.002z"/>
<g>
</g>
<g>
</g>
<g>
</g>
<g>
</g>
<g>
</g>
<g>
</g>
<g>
</g>
<g>
</g>
<g>
</g>
<g>
</g>
<g>
</g>
<g>
</g>
<g>
</g>
<g>
</g>
<g>
</g>
</svg>
